<svg width="20" height="20" viewBox="0 0 20 20" fill="none" xmlns="http://www.w3.org/2000/svg">
<path d="M10.7753 3.99219H6.12533C2.70866 3.99219 1.66699 5.03385 1.66699 8.45052V11.5505C1.66699 14.9672 2.70866 16.0089 6.12533 16.0089H10.7753C14.192 16.0089 15.2337 14.9672 15.2337 11.5505V8.45052C15.2337 5.03385 14.192 3.99219 10.7753 3.99219Z" fill="#858C73"/>
<path d="M17.0157 7.50007C16.899 7.49173 16.749 7.4834 16.5824 7.4834C16.2574 7.4834 15.999 7.74173 15.999 8.06673V11.9417C15.999 12.2667 16.2574 12.5251 16.5824 12.5251C16.749 12.5251 16.8907 12.5167 17.0324 12.5084C18.3324 12.3584 18.3324 11.4417 18.3324 10.7751V9.22507C18.3324 8.5584 18.3324 7.64173 17.0157 7.50007Z" fill="#858C73"/>
</svg>
